<?xml version="1.0" standalone="no"?><!-- Generator: Gravit.io --><svg xmlns="http://www.w3.org/2000/svg" xmlns:xlink="http://www.w3.org/1999/xlink" style="isolation:isolate" viewBox="0 0 512 512" width="512" height="512"><defs><clipPath id="_clipPath_Je4lcXLTNOgbuZLtIHkSO4pZrSEw7bBv"><rect width="512" height="512"/></clipPath></defs><g clip-path="url(#_clipPath_Je4lcXLTNOgbuZLtIHkSO4pZrSEw7bBv)"><g id="Group"><g id="Group"><path d=" M 206.681 256.108 L 398.219 64.562 C 403.493 59.3 406.395 52.266 406.395 44.765 C 406.395 37.259 403.493 30.229 398.219 24.959 L 381.436 8.184 C 376.17 2.905 369.131 0 361.63 0 C 354.129 0 347.099 2.905 341.829 8.184 L 113.772 236.236 C 108.482 241.522 105.584 248.586 105.605 256.096 C 105.584 263.638 108.477 270.694 113.772 275.985 L 341.616 503.816 C 346.886 509.095 353.917 512 361.422 512 C 368.923 512 375.954 509.095 381.228 503.816 L 398.007 487.041 C 408.926 476.123 408.926 458.348 398.007 447.434 L 206.681 256.108 Z " fill="rgb(57,107,52)"/></g></g></g></svg>