<svg id="Layer_1" data-name="Layer 1" xmlns="http://www.w3.org/2000/svg" viewBox="0 0 489.6 489.6"><defs><style>.cls-1{fill:#396b34;}</style></defs><title>next</title><path class="cls-1" d="M244.8,0C109.8,0,0,109.8,0,244.8S109.8,489.6,244.8,489.6,489.6,379.8,489.6,244.8,379.8,0,244.8,0Zm0,469.8c-124.1,0-225-100.9-225-225s100.9-225,225-225,225,100.9,225,225S368.9,469.8,244.8,469.8Z" transform="translate(0 0)"/><path class="cls-1" d="M224.1,163.5a9.9,9.9,0,0,0-14,0,9.84,9.84,0,0,0,0,14l67.3,67.3-67.3,67.3a9.9,9.9,0,0,0,14,14l74.3-74.3a9.84,9.84,0,0,0,0-14Z" transform="translate(0 0)"/></svg>